# xmcd
#
# Track frame offsets:
#	150
#	16388
#	34881
#	51746
#	64089
#	76078
#	95333
#	113143
#	125155
#	141703
#	159601
#	176584
#
# Disc length: 2561 seconds
#
# Revision: 1
# Processed by: cddbd v1.5.2PL0 Copyright (c) Steve Scherf et al.
# Submitted via: audiograbber 1.83.01
#
DISCID=ad09ff0c
DTITLE=Bastard Sons of Johnny Cash - Mile Markers
DYEAR=2005
DGENRE=Country
TTITLE0=Austin Night
TTITLE1=The Road To Bakersfield
TTITLE2=California Sky
TTITLE3=Borderline of the Heart
TTITLE4=King of the World
TTITLE5=Radio Girl
TTITLE6=Night Comes Down
TTITLE7=Restless Heart
TTITLE8=Are You Lonely Tonight?
TTITLE9=No Easy Road
TTITLE10=Under Your Spell
TTITLE11=The Pride of Abilene
EXTD=
EXTT0=
EXTT1=
EXTT2=
EXTT3=
EXTT4=
EXTT5=
EXTT6=
EXTT7=
EXTT8=
EXTT9=
EXTT10=
EXTT11=
PLAYORDER=
